<?xml version="1.0" encoding="UTF-8" standalone="no"?>
<!-- Created with Inkscape (http://www.inkscape.org/) -->

<svg
   width="400"
   height="400"
   viewBox="0 0 105.83333 105.83333"
   version="1.1"
   id="svg1"
   xml:space="preserve"
   sodipodi:docname="cf_logo.svg"
   xmlns:inkscape="http://www.inkscape.org/namespaces/inkscape"
   xmlns:sodipodi="http://sodipodi.sourceforge.net/DTD/sodipodi-0.dtd"
   xmlns="http://www.w3.org/2000/svg"
   xmlns:svg="http://www.w3.org/2000/svg"><sodipodi:namedview
     id="namedview1"
     pagecolor="#505050"
     bordercolor="#eeeeee"
     borderopacity="1"
     inkscape:showpageshadow="0"
     inkscape:pageopacity="0"
     inkscape:pagecheckerboard="0"
     inkscape:deskcolor="#505050"
     inkscape:document-units="px"><inkscape:page
       x="0"
       y="0"
       width="105.83333"
       height="105.83333"
       id="page2"
       margin="0"
       bleed="0" /></sodipodi:namedview><defs
     id="defs1" /><g
     id="layer1"
     transform="translate(-85.923004,-109.27121)"><rect
       style="fill:#000000;fill-opacity:0.870588;stroke-width:0.320975"
       id="rect1"
       width="105.83333"
       height="105.83333"
       x="85.923004"
       y="109.27121"
       inkscape:export-filename="/home/jpb/Downloads/cf_logo.png"
       inkscape:export-xdpi="96"
       inkscape:export-ydpi="96" /><path
       id="path37"
       style="fill:#ffffff;fill-opacity:0.870588;stroke-width:0.221939"
       d="m 122.66735,144.49323 a 17.694422,17.694422 0 0 0 -15.32375,8.84721 17.694422,17.694422 0 0 0 0,17.69442 17.694422,17.694422 0 0 0 15.32375,8.84722 v -4.5e-4 h 0.56438 l 3.09328,-6.62088 h -0.81754 -2.84012 v -4.4e-4 a 11.073101,11.073101 0 0 1 -9.58975,-5.53634 11.073101,11.073101 0 0 1 0,-11.07354 11.073101,11.073101 0 0 1 9.58975,-5.53631 h 14.00512 l 3.09327,-6.62045 h -17.09839 z m 20.99879,4.4e-4 -6.68591,14.30986 c -0.0958,0.20496 -0.2007,0.43014 -0.30168,0.64631 l -9.54685,20.43268 h 8.27807 l 6.75568,-14.45897 h 11.34317 v 0.24101 l -2.04688,3.54843 h 5.18349 l 7.82854,-7.09945 -7.8268,-7.09901 h -5.18436 l 2.04732,3.54799 v 0.24058 h -8.25163 l 3.59264,-7.68896 h 8.2902 5.53069 6.94123 l 3.09327,-6.62047 h -10.0345 -5.53069 -5.19693 -1.12443 z" /></g></svg>
