<svg width="760" height="330" viewBox="0 0 760 330" fill="none" xmlns="http://www.w3.org/2000/svg">
  <rect width="760" height="330" rx="22" fill="#0F172A"/>
  <rect x="1" y="1" width="758" height="328" rx="21" stroke="#1E293B" stroke-width="1"/>

  <g font-family="JetBrains Mono, ui-monospace, SFMono-Regular, Menlo, Monaco, Consolas, monospace">

    <!-- Header -->
    <text x="34" y="48" fill="#F8FAFC" font-size="21" font-weight="800">
      Project Map
    </text>
    <text x="34" y="76" fill="#94A3B8" font-size="14" font-weight="500">
      What the repositories are meant to demonstrate.
    </text>

    <!-- Card 1 -->
    <g transform="translate(34, 105)">
      <rect width="208" height="82" rx="14" fill="#111827"/>
      <rect x="1" y="1" width="206" height="80" rx="13" stroke="#1E293B" stroke-width="1"/>
      <text x="18" y="27" fill="#58A6FF" font-size="13" font-weight="800">
        Run Operations
      </text>
      <text x="18" y="50" fill="#CBD5E1" font-size="12" font-weight="500">
        versioned specs
      </text>
      <text x="18" y="68" fill="#CBD5E1" font-size="12" font-weight="500">
        artifacts · reports
      </text>
    </g>

    <!-- Card 2 -->
    <g transform="translate(273, 105)">
      <rect width="208" height="82" rx="14" fill="#111827"/>
      <rect x="1" y="1" width="206" height="80" rx="13" stroke="#1E293B" stroke-width="1"/>
      <text x="18" y="27" fill="#58A6FF" font-size="13" font-weight="800">
        Observability
      </text>
      <text x="18" y="50" fill="#CBD5E1" font-size="12" font-weight="500">
        metrics · dashboards
      </text>
      <text x="18" y="68" fill="#CBD5E1" font-size="12" font-weight="500">
        inspection workflows
      </text>
    </g>

    <!-- Card 3 -->
    <g transform="translate(512, 105)">
      <rect width="208" height="82" rx="14" fill="#111827"/>
      <rect x="1" y="1" width="206" height="80" rx="13" stroke="#1E293B" stroke-width="1"/>
      <text x="18" y="27" fill="#58A6FF" font-size="13" font-weight="800">
        Runtime Safety
      </text>
      <text x="18" y="50" fill="#CBD5E1" font-size="12" font-weight="500">
        kill switch behavior
      </text>
      <text x="18" y="68" fill="#CBD5E1" font-size="12" font-weight="500">
        explicit boundaries
      </text>
    </g>

    <!-- Card 4 -->
    <g transform="translate(154, 215)">
      <rect width="208" height="82" rx="14" fill="#111827"/>
      <rect x="1" y="1" width="206" height="80" rx="13" stroke="#1E293B" stroke-width="1"/>
      <text x="18" y="27" fill="#58A6FF" font-size="13" font-weight="800">
        Infrastructure
      </text>
      <text x="18" y="50" fill="#CBD5E1" font-size="12" font-weight="500">
        Kubernetes · GitOps
      </text>
      <text x="18" y="68" fill="#CBD5E1" font-size="12" font-weight="500">
        reproducible environments
      </text>
    </g>

    <!-- Card 5 -->
    <g transform="translate(392, 215)">
      <rect width="208" height="82" rx="14" fill="#111827"/>
      <rect x="1" y="1" width="206" height="80" rx="13" stroke="#1E293B" stroke-width="1"/>
      <text x="18" y="27" fill="#58A6FF" font-size="13" font-weight="800">
        Documentation
      </text>
      <text x="18" y="50" fill="#CBD5E1" font-size="12" font-weight="500">
        scope · limitations
      </text>
      <text x="18" y="68" fill="#CBD5E1" font-size="12" font-weight="500">
        runbooks · archived
      </text>
    </g>

  </g>
</svg>