<svg width="760" height="260" viewBox="0 0 760 260" fill="none" xmlns="http://www.w3.org/2000/svg">
  <rect width="760" height="260" rx="22" fill="#0F172A"/>
  <rect x="1" y="1" width="758" height="258" rx="21" stroke="#1E293B" stroke-width="1"/>

  <!-- Header -->
  <text x="34" y="48" fill="#F8FAFC" font-family="Inter, Segoe UI, Arial, sans-serif" font-size="24" font-weight="800">
    TradingChassis
  </text>
  <text x="34" y="76" fill="#94A3B8" font-family="Inter, Segoe UI, Arial, sans-serif" font-size="14" font-weight="500">
    Applied infrastructure and reliability lab for trading-adjacent systems.
  </text>

  <!-- Badge row centered -->
  <g transform="translate(56, 100)">
    <rect width="158" height="30" rx="15" fill="#111827"/>
    <rect x="1" y="1" width="156" height="28" rx="14" stroke="#2563EB" stroke-opacity="0.5"/>
    <text x="79" y="15" text-anchor="middle" dominant-baseline="middle" fill="#BFDBFE" font-family="Inter, Segoe UI, Arial, sans-serif" font-size="12" font-weight="700">
      SRE / Reliability
    </text>
  </g>

  <g transform="translate(228, 100)">
    <rect width="150" height="30" rx="15" fill="#111827"/>
    <rect x="1" y="1" width="148" height="28" rx="14" stroke="#2563EB" stroke-opacity="0.5"/>
    <text x="75" y="15" text-anchor="middle" dominant-baseline="middle" fill="#BFDBFE" font-family="Inter, Segoe UI, Arial, sans-serif" font-size="12" font-weight="700">
      Observability
    </text>
  </g>

  <g transform="translate(392, 100)">
    <rect width="156" height="30" rx="15" fill="#111827"/>
    <rect x="1" y="1" width="154" height="28" rx="14" stroke="#2563EB" stroke-opacity="0.5"/>
    <text x="78" y="15" text-anchor="middle" dominant-baseline="middle" fill="#BFDBFE" font-family="Inter, Segoe UI, Arial, sans-serif" font-size="12" font-weight="700">
      Reproducibility
    </text>
  </g>

  <g transform="translate(562, 100)">
    <rect width="142" height="30" rx="15" fill="#111827"/>
    <rect x="1" y="1" width="140" height="28" rx="14" stroke="#2563EB" stroke-opacity="0.5"/>
    <text x="71" y="15" text-anchor="middle" dominant-baseline="middle" fill="#BFDBFE" font-family="Inter, Segoe UI, Arial, sans-serif" font-size="12" font-weight="700">
      Ops Workflows
    </text>
  </g>

  <!-- Main cards -->
  <g transform="translate(34, 155)">
    <rect width="214" height="70" rx="14" fill="#111827"/>
    <rect x="1" y="1" width="212" height="68" rx="13" stroke="#1E293B" stroke-width="1"/>
    <text x="18" y="27" fill="#58A6FF" font-family="Inter, Segoe UI, Arial, sans-serif" font-size="13" font-weight="800">
      Concrete Domain
    </text>
    <text x="18" y="49" fill="#CBD5E1" font-family="Inter, Segoe UI, Arial, sans-serif" font-size="12" font-weight="500">
      trading-adjacent systems
    </text>
  </g>

  <g transform="translate(273, 155)">
    <rect width="214" height="70" rx="14" fill="#111827"/>
    <rect x="1" y="1" width="212" height="68" rx="13" stroke="#1E293B" stroke-width="1"/>
    <text x="18" y="27" fill="#58A6FF" font-family="Inter, Segoe UI, Arial, sans-serif" font-size="13" font-weight="800">
      Engineering Focus
    </text>
    <text x="18" y="49" fill="#CBD5E1" font-family="Inter, Segoe UI, Arial, sans-serif" font-size="12" font-weight="500">
      infrastructure · reliability
    </text>
  </g>

  <g transform="translate(512, 155)">
    <rect width="214" height="70" rx="14" fill="#111827"/>
    <rect x="1" y="1" width="212" height="68" rx="13" stroke="#1E293B" stroke-width="1"/>
    <text x="18" y="27" fill="#58A6FF" font-family="Inter, Segoe UI, Arial, sans-serif" font-size="13" font-weight="800">
      Boundary
    </text>
    <text x="18" y="49" fill="#CBD5E1" font-family="Inter, Segoe UI, Arial, sans-serif" font-size="12" font-weight="500">
      no trading performance claim
    </text>
  </g>
</svg>